name C:\Users\r0593348\3dpredictsim\Results\MidTarsalJoint\Fal_s1_bCst_PF_Natali2010_ls150_MT_k400_d010_MTP_T5_ig21.mot
datacolumns 128
datarows 4
range 1.12846810 1.16232215
endheader
time	pelvis_tilt	pelvis_list	pelvis_rotation	pelvis_tx	pelvis_ty	pelvis_tz	hip_flexion_l	hip_adduction_l	hip_rotation_l	hip_flexion_r	hip_adduction_r	hip_rotation_r	knee_angle_l	knee_angle_r	ankle_angle_l	ankle_angle_r	subtalar_angle_l	subtalar_angle_r	mtj_angle_l	mtj_angle_r	mtp_angle_l	mtp_angle_r	lumbar_extension	lumbar_bending	lumbar_rotation	arm_flex_l	arm_add_l	arm_rot_l	arm_flex_r	arm_add_r	arm_rot_r	elbow_flex_l	elbow_flex_r	pro_sup_l	pro_sup_r	glut_med1_l/activation	glut_med2_l/activation	glut_med3_l/activation	glut_min1_l/activation	glut_min2_l/activation	glut_min3_l/activation	semimem_l/activation	semiten_l/activation	bifemlh_l/activation	bifemsh_l/activation	sar_l/activation	add_long_l/activation	add_brev_l/activation	add_mag1_l/activation	add_mag2_l/activation	add_mag3_l/activation	tfl_l/activation	pect_l/activation	grac_l/activation	glut_max1_l/activation	glut_max2_l/activation	glut_max3_l/activation	iliacus_l/activation	psoas_l/activation	quad_fem_l/activation	gem_l/activation	peri_l/activation	rect_fem_l/activation	vas_med_l/activation	vas_int_l/activation	vas_lat_l/activation	med_gas_l/activation	lat_gas_l/activation	soleus_l/activation	tib_post_l/activation	flex_dig_l/activation	flex_hal_l/activation	tib_ant_l/activation	per_brev_l/activation	per_long_l/activation	per_tert_l/activation	ext_dig_l/activation	ext_hal_l/activation	ercspn_l/activation	intobl_l/activation	extobl_l/activation	glut_med1_r/activation	glut_med2_r/activation	glut_med3_r/activation	glut_min1_r/activation	glut_min2_r/activation	glut_min3_r/activation	semimem_r/activation	semiten_r/activation	bifemlh_r/activation	bifemsh_r/activation	sar_r/activation	add_long_r/activation	add_brev_r/activation	add_mag1_r/activation	add_mag2_r/activation	add_mag3_r/activation	tfl_r/activation	pect_r/activation	grac_r/activation	glut_max1_r/activation	glut_max2_r/activation	glut_max3_r/activation	iliacus_r/activation	psoas_r/activation	quad_fem_r/activation	gem_r/activation	peri_r/activation	rect_fem_r/activation	vas_med_r/activation	vas_int_r/activation	vas_lat_r/activation	med_gas_r/activation	lat_gas_r/activation	soleus_r/activation	tib_post_r/activation	flex_dig_r/activation	flex_hal_r/activation	tib_ant_r/activation	per_brev_r/activation	per_long_r/activation	per_tert_r/activation	ext_dig_r/activation	ext_hal_r/activation	ercspn_r/activation	intobl_r/activation	extobl_r/activation	
          1.12846810	         -2.93017646	         -2.10269672	          5.23720283	          1.41058513	          0.91881770	         -0.00183888	        -17.07235679	         -1.05944664	          6.56776446	         29.41712256	          3.35570200	         -2.46047459	         -7.33556014	        -11.40214628	         -1.28337136	          5.74103637	          8.28531802	         -4.23939492	          3.79593432	         -0.01814983	         13.52968876	         -0.86452170	         -2.02345476	          0.27315891	         -2.03669302	          5.06459102	        -13.45429650	         16.43115886	         -4.98130910	        -13.45322431	          6.57925065	         33.71369620	         16.65884207	         86.51662706	         86.51662706	          0.25979376	          0.09962237	          0.07857909	          0.29284130	          0.19512685	          0.10944234	          0.05000160	          0.05000037	          0.05000021	          0.05905108	          0.10688359	          0.07681547	          0.05655375	          0.05000213	          0.05000397	          0.05000131	          0.30638418	          0.05116366	          0.05000207	          0.05000448	          0.05000338	          0.05000385	          0.41788196	          0.64637912	          0.05000057	          0.05000058	          0.05035244	          0.23834684	          0.05001044	          0.05000872	          0.05000524	          0.29116820	          0.39376448	          0.32907820	          0.27935840	          0.27312674	          0.35852023	          0.05000005	          0.05940323	          0.11688518	          0.05000034	          0.05000008	          0.05000030	          0.05000002	          0.05000032	          0.05000180	          0.05940384	          0.05940388	          0.05000025	          0.05940394	          0.05940392	          0.05940298	          0.14242749	          0.05940479	          0.21545711	          0.05000086	          0.05000024	          0.13939055	          0.27627386	          0.11512376	          0.15659847	          0.10658499	          0.05000016	          0.05418747	          0.11146482	          0.05000086	          0.05133071	          0.15486702	          0.05000064	          0.05000013	          0.20895355	          0.26877409	          0.13336555	          0.05000042	          0.12276938	          0.12125317	          0.10894943	          0.05220464	          0.05207802	          0.05499115	          0.05000003	          0.05000059	          0.05000027	          0.51167950	          0.25065566	          0.16420525	          0.21935452	          0.45523678	          0.20966446	          0.05940386	          0.11527535	          0.10241218	
          1.13975279	         -2.92795383	         -2.18494355	          5.52311406	          1.42756465	          0.91786899	         -0.00164665	        -17.00110618	         -1.35460265	          6.37517395	         28.79297166	          3.69203700	         -2.22626455	         -9.15174194	        -11.65907409	         -1.83998252	          5.08622760	          9.23824368	         -4.61187989	          3.13043034	         -0.01831375	         15.05775574	         -0.86404022	         -1.82341418	          0.46826175	         -2.10237575	          4.79227672	        -13.46151977	         16.75485723	         -5.86196643	        -13.45023256	          6.34394840	         34.88267939	         16.27758997	         86.51662706	         86.51662706	          0.21866734	          0.08385174	          0.06613974	          0.24648345	          0.16423749	          0.09211720	          0.05000274	          0.05000072	          0.05000096	          0.05000030	          0.08996378	          0.16496944	          0.05156353	          0.05940548	          0.05939404	          0.05940410	          0.25788240	          0.07330368	          0.05002500	          0.05000332	          0.05000219	          0.05000266	          0.35172953	          0.60226095	          0.05000113	          0.05940350	          0.05940413	          0.20061560	          0.14254277	          0.13809597	          0.14210882	          0.24507500	          0.33142988	          0.28381518	          0.24588216	          0.22989043	          0.30176678	          0.05000005	          0.05000015	          0.12934093	          0.05000015	          0.05000004	          0.05000023	          0.05679956	          0.06418862	          0.05940380	          0.05000001	          0.05000007	          0.10471991	          0.05000007	          0.05000008	          0.05000010	          0.11988075	          0.05000085	          0.18134935	          0.05000015	          0.05940464	          0.11732527	          0.26948638	          0.31096695	          0.20659321	          0.11575685	          0.05000065	          0.07056880	          0.12094212	          0.05120766	          0.08659217	          0.13035195	          0.05000020	          0.07057554	          0.46732673	          0.22622601	          0.11225325	          0.05940654	          0.14206000	          0.14117080	          0.12363143	          0.05000208	          0.06036199	          0.05000007	          0.05940411	          0.05000705	          0.05940424	          0.46389792	          0.27467845	          0.20184535	          0.18462987	          0.41817824	          0.17647373	          0.05000001	          0.09702676	          0.08619988	
          1.15103747	         -2.92179710	         -2.27135655	          5.77899581	          1.44484145	          0.91698397	         -0.00147020	        -16.86516420	         -1.65071976	          6.17327525	         28.04913414	          3.94232526	         -1.96610967	        -11.06536944	        -12.18831734	         -2.54365087	          4.55092304	         10.15100326	         -5.00322250	          2.34720743	         -0.17865840	         16.62493697	         -0.88330258	         -1.60252195	          0.67576941	         -2.15666770	          4.44105173	        -13.46560918	         17.00159706	         -6.77078649	        -13.45397558	          6.16131361	         36.03532761	         15.95067506	         86.51662706	         86.51662706	          0.32566385	          0.07057768	          0.05566963	          0.32257622	          0.13823811	          0.07753471	          0.05000182	          0.05000027	          0.05000022	          0.05000030	          0.07572264	          0.13885417	          0.05000071	          0.05000168	          0.05000129	          0.05000104	          0.26368848	          0.06170086	          0.05000103	          0.05000591	          0.05000305	          0.05000167	          0.29604948	          0.57447828	          0.05000045	          0.05000131	          0.05000049	          0.16885732	          0.11997803	          0.11623517	          0.11961270	          0.20627855	          0.27896308	          0.23888598	          0.20695804	          0.19349799	          0.25399598	          0.05000002	          0.09549956	          0.14995389	          0.05000015	          0.05000006	          0.05000017	          0.05000009	          0.05402728	          0.05000007	          0.22990523	          0.23097225	          0.29315625	          0.35026337	          0.22589383	          0.21802142	          0.10685966	          0.06157161	          0.15264126	          0.08384663	          0.05000193	          0.09875224	          0.22682561	          0.26173963	          0.17388881	          0.11889685	          0.05000056	          0.05940434	          0.10180114	          0.05000046	          0.10610666	          0.10971700	          0.05788449	          0.05940322	          0.39334690	          0.19041359	          0.21020257	          0.05000226	          0.11957136	          0.11882293	          0.10406010	          0.05000155	          0.05080662	          0.05187353	          0.05000026	          0.05000050	          0.05000088	          0.53700667	          0.31844780	          0.16989279	          0.34341856	          0.49038379	          0.14853841	          0.05986691	          0.11835759	          0.07255407	
          1.16232215	         -2.91394762	         -2.35180645	          6.00016076	          1.46220327	          0.91618921	         -0.00126991	        -16.62612090	         -1.93757939	          5.98049209	         27.25603589	          4.17056692	         -1.70623952	        -13.11884130	        -12.67827229	         -3.41924733	          4.06026308	         11.02915004	         -5.39482943	          1.51106133	         -0.13326148	         18.13739070	         -0.85526694	         -1.38406653	          0.88481593	         -2.20230024	          4.04668220	        -13.47540148	         17.19756554	         -7.66158220	        -13.45811700	          6.03090180	         37.15293360	         15.65715478	         86.51662706	         86.51662706	          0.29557970	          0.05940496	          0.05000015	          0.27151237	          0.11635450	          0.06526068	          0.05000313	          0.05000032	          0.05000028	          0.05000026	          0.06373578	          0.14898171	          0.05001085	          0.05000337	          0.05000409	          0.05000168	          0.22194754	          0.07047462	          0.05000175	          0.05000291	          0.05000184	          0.05000140	          0.24918361	          0.52851074	          0.05000031	          0.05000109	          0.05000025	          0.14212649	          0.12862278	          0.13398829	          0.11835962	          0.17362374	          0.23480200	          0.20106927	          0.17419572	          0.16286655	          0.21378742	          0.05000525	          0.08307430	          0.15494181	          0.05000105	          0.10759712	          0.05000130	          0.07302031	          0.05000001	          0.05000005	          0.32469370	          0.31945781	          0.34371362	          0.29481537	          0.19013527	          0.18362441	          0.09014494	          0.08073526	          0.12847762	          0.07057369	          0.05000104	          0.08311938	          0.19091818	          0.22030536	          0.14636288	          0.15747520	          0.05000040	          0.05000151	          0.08568618	          0.20454998	          0.17366576	          0.15134726	          0.05000008	          0.05000010	          0.33107843	          0.16027037	          0.17692686	          0.05000007	          0.11637414	          0.13734483	          0.09513617	          0.05000003	          0.05000007	          0.05000001	          0.05000002	          0.05000013	          0.05000012	          0.59616113	          0.29754192	          0.16330681	          0.55886391	          0.53075102	          0.26607573	          0.07956395	          0.09962108	          0.06106845	
